PathFileType	4	(X/Y/Z)	C:/Users/beibeiliu/ov580/test_trc\sequence.25_training_dense_left.trc
DataRate	CameraRate	NumFrames	NumMarkers	Units	OrigDataRate	OrigDataStartFrame	OrigNumFrames
120	120	22	19	mm	120	113	300
Frame#	Time	ThumbCMC			ThumbMCP			ThumbIP			ThumbTip			IndexMCP			IndexPIP			IndexTip			MiddleMCP			MiddlePIP			MiddleTip			RingMCP			RingPIP			RingTip			PinkyMCP			PinkyPIP			PinkyTip			BackHand1			BackHand2			BackHand3	
		X0	Y0	Z0	X1	Y1	Z1	X2	Y2	Z2	X3	Y3	Z3	X4	Y4	Z4	X5	Y5	Z5	X6	Y6	Z6	X7	Y7	Z7	X8	Y8	Z8	X9	Y9	Z9	X10	Y10	Z10	X11	Y11	Z11	X12	Y12	Z12	X13	Y13	Z13	X14	Y14	Z14	X15	Y15	Z15	X16	Y16	Z16	X17	Y17	Z17	X18	Y18	Z18	
112	0.933333	-215.765	30.0372	31.1616	-199.838	41.9317	1.84057	-187.506	36.4035	-17.2158	-171.158	28.4872	-34.0241	-221.046	8.70556	-32.5948	-216.595	11.3838	-56.844	-209.115	12.5815	-79.9165	-202.229	-6.75811	-35.3081	-199.535	0.534495	-58.4885	-189.017	5.9209	-81.5861	-177.096	-1.00037	-28.205	-164.138	20.6727	-24.3915	-170.558	27.4579	1.75783	-164.655	-6.70829	-15.1547	-159.351	13.3368	-12.2562	-170.519	20.2574	12.5826	-197.928	-22.0793	16.9543	-203.224	-19.654	41.1309	-221.652	-6.02261	25.3411	
113	0.941667	-212.109	33.2247	28.6303	-197.185	43.4489	3.86473	-185.358	37.3644	-19.1503	-171.835	24.7489	-36.2659	-223.669	11.9024	-29.8442	-220.319	11.6841	-55.9774	-216.814	12.814	-78.1144	-207.215	-5.72716	-39.3816	-206.114	0.296907	-58.4034	-193.365	3.47688	-86.6471	-182.506	-2.04573	-30.0954	-168.097	17.6336	-26.51	-169.568	23.8686	3.56449	-170.293	-12.7931	-15.0406	-158.366	10.83	-11.669	-168.264	17.7376	12.775	-205.655	-18.481	14.5525	-203.663	-20.276	43.8465	-222.6	0.292986	29.7334	
114	0.95	-207.876	32.6754	34.0455	-194.873	41.0257	0.375521	-186.042	33.0909	-21.0533	-175.002	21.2747	-33.5039	-228.434	14.2226	-28.1174	-225.709	14.5809	-52.6086	-222.142	11.7744	-71.8215	-216.376	-0.629636	-34.3585	-210.022	0.168965	-61.4212	-206.337	3.49368	-81.125	-185.733	-5.27236	-30.9625	-170.535	13.1015	-28.8156	-169.259	22.4191	-1.92613	-178.501	-15.2562	-14.9273	-164.57	6.28915	-16.6598	-166.843	14.784	8.35408	-205.898	-18.3148	19.9603	-204.863	-18.8644	41.9851	-222.466	0.5772	32.097	
115	0.958333	-205.67	32.8301	32.1051	-193.367	42.0885	4.99264	-186.176	33.4533	-21.872	-178.584	18.9451	-35.3279	-231.089	17.3371	-24.5557	-230.711	16.3838	-50.6534	-230.037	16.5995	-69.0757	-219.758	-2.50987	-33.1922	-215.894	-1.06468	-59.6553	-213.334	3.49205	-79.7467	-195.147	-5.43983	-26.6569	-171.763	13.8379	-27.436	-172.127	19.4189	-2.31196	-180.527	-16.264	-18.3683	-164.527	1.2488	-16.1419	-171.689	13.3268	7.68062	-209.481	-17.6424	18.8673	-208.592	-15.0563	45.1528	-224.193	8.41415	32.3667	
116	0.966667	-202.251	35.2895	35.8543	-192.724	40.9928	0.599473	-186.968	34.0554	-19.3311	-182.786	14.6256	-34.6724	-231.122	19.4528	-21.5225	-232.639	17.068	-43.5513	-234.449	17.6931	-67.769	-224.888	-0.225738	-28.4841	-225.677	3.59927	-55.1221	-219.963	1.92127	-79.7971	-198.847	-7.65048	-25.8648	-176.075	10.4885	-29.0591	-170.164	15.2726	-3.24902	-186.961	-15.9105	-17.3762	-167.919	-2.53979	-17.8823	-168.618	9.62352	7.00673	-216.407	-13.6847	21.3253	-209.969	-16.5797	47.4906	-224.342	10.1679	37.5345	
117	0.975	-198.729	37.4569	36.14	-190.642	43.684	0.144499	-188.944	33.171	-18.324	-186.846	16.0973	-34.4821	-233.69	21.7693	-21.3933	-236.89	23.5242	-43.6313	-238.997	21.2758	-65.9838	-229.422	3.16518	-25.7193	-229.587	3.22338	-50.5087	-227.591	3.13525	-75.2362	-204.263	-3.61027	-25.3638	-182.851	7.2013	-31.7157	-172.34	13.1759	-3.93293	-192.351	-20.4325	-14.6035	-172.276	-4.20143	-16.9574	-171.764	9.16702	6.92042	-218.396	-12.2753	21.2177	-209.894	-9.13018	51.8847	-222.738	10.0943	36.7404	
118	0.983333	-197.25	34.7929	35.2724	-190.87	41.0778	1.20598	-192.52	29.6742	-18.167	-189.633	16.546	-38.3946	-236.669	28.6018	-17.2617	-240.737	28.0799	-40.8753	-243.057	25.6235	-61.0108	-233.749	9.62643	-22.8389	-236.361	11.2281	-46.5587	-235.599	8.86546	-74.1944	-207.432	-5.98396	-27.1214	-184.636	3.18038	-31.644	-172.79	10.75	-3.27502	-198.86	-19.6904	-14.2108	-177.909	-7.78073	-19.2665	-173.929	7.48671	4.28227	-220.948	-12.1876	26.4765	-211.507	-10.4923	53.1442	-220.826	17.0165	42.2049	
119	0.991667	-194.87	34.526	35.4688	-189.238	42.2747	1.57145	-193.299	31.1563	-20.5823	-194.828	13.488	-36.0795	-235.841	34.2758	-11.4453	-242.291	33.526	-34.2091	-247.544	31.6537	-58.4686	-238.745	11.6488	-21.3516	-242.693	14.2347	-47.3672	-244.138	14.1292	-73.5901	-214.788	-3.44063	-24.6719	-189.595	5.61586	-30.9702	-174.913	7.59865	-7.5666	-205.51	-17.6789	-14.2518	-183.034	-8.91601	-18.3019	-178.191	5.18444	4.37035	-226.386	-8.62312	25.8415	-214.256	-10.0429	52.2461	-221.024	16.0512	44.6229	
120	1	-189.838	36.815	38.0143	-186.13	38.8097	6.71062	-192.742	28.8636	-16.8172	-196.437	16.1156	-31.9498	-237.752	36.0785	-11.4737	-242.844	36.0797	-30.4406	-250.626	38.5544	-52.23	-239.82	15.599	-15.0715	-245.893	19.9907	-42.273	-248.895	18.1906	-65.5804	-221.134	0.327553	-18.0411	-196.633	2.90711	-31.107	-176.953	4.34968	-6.25525	-210.676	-14.3565	-13.7753	-188.088	-6.26307	-17.4363	-177.792	1.05166	-0.244824	-226.265	-6.32648	32.0769	-214.16	-7.97864	54.9416	-220.195	23.5072	43.0376	
121	1.00833	-186.002	36.0844	36.6996	-181.994	37.4857	6.12892	-192.015	29.638	-17.2105	-202.04	11.8547	-35.0416	-236.193	37.8901	-8.33234	-244.187	39.7288	-27.3884	-253.844	39.808	-52.0634	-242.967	20.9577	-16.6354	-247.956	26.3223	-35.393	-255.788	21.9746	-60.3781	-223.904	-2.33154	-17.7571	-199.006	-2.30138	-30.3914	-180.374	0.0408505	-9.22541	-217.672	-17.4145	-9.9683	-193.681	-12.9874	-18.336	-179.881	-4.3369	0.844252	-228.057	-0.797376	30.9048	-213.988	-6.48458	57.9612	-217.541	23.5405	47.2444	
122	1.01667	-184.756	29.4144	38.8545	-184.203	35.1835	5.25836	-193.637	28.787	-20.3164	-205.191	12.6298	-33.7015	-237.064	42.219	-6.5259	-244.255	44.4181	-23.2043	-253.501	48.6502	-43.3702	-244.699	24.1958	-11.8273	-251.625	29.1934	-33.7247	-260.23	31.1353	-58.9983	-227.634	0.149794	-18.4887	-202.785	-1.95091	-30.5525	-184.524	-2.47866	-11.4829	-219.989	-16.45	-12.6458	-199.04	-12.791	-17.6868	-185.039	-2.46391	1.64722	-231.101	-1.11893	31.7868	-216.961	-4.74729	59.722	-214.53	25.4277	48.017	
123	1.025	-183.393	31.9973	36.2052	-184.891	34.5455	2.65713	-196.682	26.851	-17.4496	-205.257	14.0163	-33.6313	-233.471	47.0865	-2.61006	-247.062	47.9311	-23.6178	-256.424	53.2656	-44.9206	-244.876	29.4115	-9.59687	-254.759	30.6466	-31.6255	-262.776	36.6515	-54.3176	-231.297	6.00779	-13.1482	-207.721	-0.69826	-29.7982	-187.396	-1.72444	-9.72956	-226.895	-13.0929	-6.84875	-203.166	-10.8171	-16.5526	-186.25	-8.20431	0.067954	-230.159	-0.17708	37.1304	-217.533	-1.28013	58.1003	-214.647	21.857	50.6708	
124	1.03333	-183.803	27.2997	36.4245	-184.84	29.9413	5.51632	-196.681	27.5265	-18.8587	-208.63	14.3813	-31.4776	-233.493	45.1091	-0.614362	-245.01	48.0061	-19.0422	-256.455	54.2568	-39.4347	-244.435	33.5516	-6.06038	-256.669	36.0088	-29.5191	-265.534	42.1314	-50.3796	-235.418	5.75205	-12.3716	-214.626	2.09085	-30.1989	-190.882	-1.14876	-9.81593	-231.765	-14.159	-6.00792	-207.443	-12.0148	-15.9196	-190.61	-8.1077	2.69455	-232.465	5.71803	36.3711	-218.662	-4.42744	61.5738	-211.947	21.7064	50.5479	
125	1.04167	-182.505	25.419	36.7272	-180.84	29.2937	4.7802	-195.014	26.3479	-16.933	-211.469	15.9697	-30.7159	-230.41	49.0445	1.62455	-241.899	55.0627	-17.1544	-255.074	59.3234	-37.4483	-246.234	37.4983	-7.77297	-256.29	40.9597	-27.3326	-267.721	46.5365	-49.4216	-238.683	8.50997	-12.9124	-213.54	3.73371	-29.5415	-194.636	-6.42006	-11.9277	-236.076	-10.3306	-5.179	-212.694	-11.0942	-17.1564	-195.897	-10.5961	1.66563	-235.1	4.84956	37.3103	-221.55	-1.79283	59.4624	-212.114	22.9099	50.2859	
126	1.05	-180.76	21.5305	35.3785	-181.704	25.3402	6.39096	-198.083	26.2137	-18.5628	-214.444	16.4488	-30.4526	-230.281	52.513	-1.35166	-239.142	57.84	-17.6135	-253.921	62.003	-38.4405	-243.531	37.0002	-2.43104	-251.049	47.0942	-22.3701	-262.87	53.6902	-44.4058	-239.46	11.0867	-16.1219	-219	2.87143	-28.6247	-198.677	-5.98124	-14.2257	-240.883	-8.71641	-5.55851	-219.171	-9.07444	-17.8956	-201.442	-10.591	3.15918	-236.563	9.68903	37.6104	-219.094	-4.15478	60.9422	-214.398	22.9606	49.653	
127	1.05833	-180.001	18.7536	36.0679	-178.564	24.0234	2.69464	-197.138	23.9013	-15.1278	-218.479	17.6757	-32.3563	-227.313	51.7053	-0.644283	-234.391	59.637	-17.0043	-248.964	66.749	-37.452	-240.358	45.1078	-5.84613	-249.656	50.93	-25.2493	-261.839	58.2265	-46.8073	-238.925	15.9308	-14.0067	-222.337	3.26932	-28.5787	-198.843	-5.18382	-10.6164	-242.886	-5.17957	-5.72572	-221.549	-13.1681	-16.9597	-204.41	-10.1385	4.66352	-232.883	10.3894	41.1326	-223.301	0.599117	59.6671	-213.639	23.0611	49.1167	
128	1.06667	-180.642	14.8989	36.1721	-179.786	21.3204	3.40481	-197.99	24.1178	-16.002	-215.087	19.2141	-30.2838	-222.728	51.999	1.77557	-232.078	61.7563	-18.2037	-237.966	71.0163	-34.5319	-239.68	46.2076	-6.50064	-246.103	56.2898	-24.5176	-257.949	61.8669	-45.6672	-240.211	18.743	-15.2889	-224.727	6.44376	-29.2235	-203.248	-6.52003	-10.2128	-244.094	1.40407	-3.47841	-223.584	-11.1237	-16.2877	-207.499	-8.13682	7.04374	-235.417	13.0232	38.4361	-224.756	-0.580931	61.6038	-209.302	22.9854	52.0624	
129	1.075	-181.209	12.4838	35.1824	-182.187	18.7349	3.50708	-200.563	25.3897	-16.7752	-215.42	21.8181	-26.9692	-215.712	55.6103	2.15585	-226.764	66.4957	-19.998	-232.821	74.6129	-34.7927	-237.831	47.3915	-3.96401	-242.449	59.8827	-25.4818	-253.379	68.8624	-44.8737	-240.627	22.4814	-14.092	-226.038	7.63033	-29.7271	-208.14	-6.44492	-12.0487	-247.808	4.55753	-5.51439	-226.151	-5.72542	-16.8367	-209.301	-7.97462	5.53132	-235.964	16.5209	39.4959	-225.275	3.09551	60.7992	-208.23	24.7507	49.2519	
130	1.08333	-184.395	10.7322	33.9699	-184.245	19.3969	1.82022	-200.656	24.6338	-16.9973	-218.646	25.1509	-30.2603	-212.154	56.7035	2.32477	-223.614	67.2423	-17.6651	-231.809	77.1525	-37.1825	-232.292	53.2165	-4.33197	-238.84	62.9928	-23.4371	-246.725	73.0673	-44.2106	-242.53	27.2518	-9.83786	-223.482	11.8629	-29.5169	-210.049	-5.3091	-11.0021	-246.876	10.614	-7.10847	-230.075	-1.4913	-17.1622	-215.245	-8.5652	3.77203	-239.566	21.6469	37.5242	-228.987	2.95619	58.1479	-208.877	22.2528	51.3474	
131	1.09167	-188.536	4.83893	35.0257	-187.178	14.3777	3.44607	-199.309	22.6598	-15.6034	-220.217	25.5102	-28.1934	-212.273	57.309	0.874244	-218.452	67.3302	-14.8013	-228.237	76.4651	-34.1281	-231.802	56.5922	-4.27331	-236.066	66.6477	-24.1155	-245.231	76.6041	-47.3726	-242.162	30.8615	-11.6229	-230.812	12.8387	-30.5291	-219.174	-5.6757	-14.4954	-248.355	16.5699	-5.21976	-236.025	-0.7485	-17.0234	-220.7	-11.4561	4.61088	-241.17	20.9313	39.1249	-231.095	6.56314	59.9464	-211.721	20.5525	51.3873	
132	1.1	-191.585	4.63031	34.5747	-188.182	12.9762	1.11397	-202.227	24.1293	-16.2427	-219.275	27.1293	-28.8278	-212.732	55.7492	2.29219	-220.12	68.5076	-15.4872	-223.919	79.8543	-33.2495	-230.716	58.5735	-4.60895	-236.262	68.9353	-24.6471	-242.141	80.1127	-49.3591	-239.434	36.1036	-12.6444	-232.669	14.9115	-29.7151	-220.367	-2.44102	-13.9501	-250.724	20.4697	-5.32465	-238.233	2.29944	-17.1194	-227.709	-8.53839	4.09297	-240.077	24.7699	36.4646	-233.895	5.04927	61.6714	-212.291	25.4471	48.5899	
133	1.10833	-192.103	2.98618	33.4808	-189.35	8.74297	3.28241	-204.013	21.0203	-14.5991	-224.22	29.7449	-30.3006	-209.205	55.709	3.77251	-216.934	68.2618	-15.0661	-220.77	82.4684	-34.4955	-229.387	58.7262	-2.6801	-229.013	71.5632	-23.5531	-238.238	81.5417	-46.0273	-246.011	37.7675	-8.85725	-234.627	21.1839	-29.1968	-224.967	-1.07655	-11.7289	-256.888	23.2456	-5.38454	-246.273	5.1296	-19.1043	-232.501	-5.21363	-0.610721	-242.057	25.5684	41.4937	-238.705	7.88949	60.9739	-216.324	22.2993	50.9979	
